<svg viewBox="0 0 1765.8 331.4" xmlns="http://www.w3.org/2000/svg"><path d="m1524.3 331.4v-24.1l-13.9 16.6a20.91 20.91 0 0 1 -16.1 7.5h-175.5v-24.1l-13.1 16.3a20.86 20.86 0 0 1 -16.4 7.8h-74.2v-24.1l-14.8 16.9a20.82 20.82 0 0 1 -15.8 7.2h-127v-24.1l-14.3 16.1a23.74 23.74 0 0 1 -17.8 8h-161.7a25.75 25.75 0 0 1 -16.9-6.4l-19.3-16.9v23.3h-145.2a26.15 26.15 0 0 1 -16.4-5.7l-22.2-17.6v23.3h-153.2a23.92 23.92 0 0 1 -15.9-6.1l-19.4-17.3v23.3h-166.6a23.74 23.74 0 0 1 -16.4-6.5l-18.2-16.9v23.3h-171.6a24.65 24.65 0 0 1 -17.6-7.3l-64.8-65.3v-190.3h147.7a22.8 22.8 0 0 1 15.3 6l29.8 27.9h34v-34l113.3.2a22.75 22.75 0 0 1 15.8 6.5l29.7 29.7v-36.4l181.2.1a22.42 22.42 0 0 1 15.8 6.6l27.2 27.3h2.5v-34h116.9a13.7 13.7 0 0 1 9.7 4l35.6 35.9v-39.9l115.9-.2.4-18a15.25 15.25 0 0 1 4.8-10.8l34-32.3a24.79 24.79 0 0 1 16.9-6.8h86.4v44l34.9-36.5a24.59 24.59 0 0 1 17.7-7.6h78.1v68h53.1l.1-7.2a19.21 19.21 0 0 1 5.3-13.2l39.7-42.7a15.07 15.07 0 0 1 10.9-4.8h90.5l.1 54.5-13.3 13.5h165v-5.2a24 24 0 0 1 6.7-16.6l40.2-41.1a16.79 16.79 0 0 1 12-5h90l.2 115.2 10.6-10.7a8.94 8.94 0 0 1 6.3-2.6h84.8v63l-34 22.6v16.3h34v54.5l-65.9 66.5a20.79 20.79 0 0 1 -14.9 6.2h-160.7z"/><g fill="#fff"><path d="m1018.9 14.9h-67.9v203.9h33.9v33.9h68v-33.9h-34v-102h34v-33.9h-34z"/><path d="m150.4 82.9h-135.9v169.8h67.9v-135.9h34v135.9h68v-135.9h-34z"/><path d="m343.1 82.9h-101.9v34h-34v101.9h34v34h135.9v-34h-101.9v-34h101.9v-67.9h-34zm-34 67.9h-34v-34h34z"/><path d="m501.8 82.9v67.9h-33.9v-67.9h-68v67.9h34v68h34v33.9h33.9v-33.9h34v-68h34v-67.9z"/><path d="m728.5 82.9h-101.9v34h-34v101.9h34v34h135.9v-34h-101.9v-34h101.9v-67.9h-34zm-33.9 67.9h-34v-34h34z"/><path d="m890.7 116.8h-34v-33.9h-67.9v169.8h67.9v-101.9h68v-67.9h-34z"/><path d="m1216.7 82.9h-67.9v-68h-67.9v237.8h67.9v-135.9h34v135.9h67.9v-135.9h-34z"/><path d="m1280.4 14.9v34h68v-34z"/><path d="m1280.4 82.9v169.8h68v-169.8z"/><path d="m1515.7 82.9h-135.9v169.8h67.9v-135.9h34v135.9h67.9v-135.9h-33.9z"/><path d="m1716.9 150.8h34v-34h-67.9v34h-34v-135.9h-68v237.8h68v-33.9h34v33.9h67.9v-33.9h-34z"/></g></svg>