<svg data-name="Layer 1" xmlns="http://www.w3.org/2000/svg" viewBox="0 0 1765.8 331.4"><path d="M309.1 150.8h-34v-34h34v34zm385.5 0h-34v-34h34v34zm1071.2 14.3v-63H1681a8.94 8.94 0 00-6.3 2.6l-10.6 10.7-.2-115.2h-90a16.79 16.79 0 00-12 5l-40.2 41.1a24 24 0 00-6.7 16.6v5.2h-165l13.3-13.5-.1-54.5h-90.5a15.07 15.07 0 00-10.9 4.8l-39.7 42.7a19.21 19.21 0 00-5.3 13.2l-.1 7.2h-53.1V0h-78.1a24.59 24.59 0 00-17.7 7.6l-34.9 36.5V.1h-86.4a24.79 24.79 0 00-16.9 6.8l-34 32.3a15.25 15.25 0 00-4.8 10.8l-.4 18-115.9.2v39.9l-35.6-35.9a13.7 13.7 0 00-9.7-4H612.3v34h-2.5l-27.2-27.3a22.42 22.42 0 00-15.8-6.6l-181.2-.1v36.4l-29.7-29.7a22.75 22.75 0 00-15.8-6.5l-113.3-.2v34h-34L163 74.3a22.8 22.8 0 00-15.3-6H0v190.3l64.8 65.3a24.65 24.65 0 0017.6 7.3H254v-23.3l18.2 16.9a23.74 23.74 0 0016.4 6.5h166.6V308l19.4 17.3a23.92 23.92 0 0015.9 6.1h153.2v-23.3l22.2 17.6a26.15 26.15 0 0016.4 5.7h145.2v-23.3l19.3 16.9a25.75 25.75 0 0016.9 6.4h161.7a23.74 23.74 0 0017.8-8l14.3-16.1v24.1h127a20.82 20.82 0 0015.8-7.2l14.8-16.9v24.1h74.2a20.86 20.86 0 0016.4-7.8l13.1-16.3v24.1h175.5a20.91 20.91 0 0016.1-7.5l13.9-16.6v23.9H1685a20.79 20.79 0 0014.9-6.2l65.9-66.5V204h-34v-16.3zM184.4 252.7h-68V116.8h-34v135.9H14.5V82.9h135.9v33.9h34zm192.7-67.9H275.2v34h101.9v34H241.2v-34h-34V116.9h34v-34h101.9v34h34zm192.7-34h-34v68h-34v33.9h-33.9v-33.9h-34v-68h-34V82.9h68v67.9h33.9V82.9h68zm192.7 34H660.6v34h101.9v34H626.6v-34h-34V116.9h34v-34h101.9v34h34zm162.2-34h-68v101.9h-67.9V82.9h67.9v33.9h34V82.9h34zm128.2-34h-34v102h34v33.9h-68v-33.9H951V14.9h67.9v68h34zm197.8 135.9h-67.9V116.8h-34v135.9h-67.9V14.9h67.9v68h67.9v33.9h34zm97.7 0h-68V82.9h68zm0-203.8h-68v-34h68zm201.2 203.8h-67.9V116.8h-34v135.9h-67.9V82.9h135.9v33.9h33.9zm201.3-33.9v33.9H1683v-33.9h-34v33.9h-68V14.9h68v135.9h34v-34h67.9v34h-34v68z" fill="#FFFFFF"/></svg>